<svg xmlns="http://www.w3.org/2000/svg" viewBox="0 0 100 100" width="100" height="100">
  <!-- Fondo circular azul -->
  <circle cx="50" cy="50" r="50" fill="#1e3a8a"/>
  
  <!-- Escudo de El Salvador -->
  <g transform="translate(50, 50) scale(0.8)">
    <!-- Triángulo principal -->
    <polygon points="0,-25 15,10 -15,10" fill="#ffffff"/>
    
    <!-- Volcanes -->
    <polygon points="-8,5 -4,0 4,0 8,5" fill="#8B4513"/>
    <polygon points="-6,0 -3,-3 3,-3 6,0" fill="#8B4513"/>
    <polygon points="-4,-5 -2,-8 2,-8 4,-5" fill="#8B4513"/>
    <polygon points="-2,-10 0,-13 0,-13 2,-10" fill="#8B4513"/>
    <polygon points="0,-15 0,-18 0,-18 0,-15" fill="#8B4513"/>
    
    <!-- Mar -->
    <path d="M-20,15 L20,15 L15,25 L-15,25 Z" fill="#87CEEB"/>
    
    <!-- Sol -->
    <circle cx="0" cy="-20" r="8" fill="#FFD700"/>
    <g stroke="#FFD700" stroke-width="1">
      <line x1="0" y1="-28" x2="0" y2="-32"/>
      <line x1="8" y1="-20" x2="12" y2="-20"/>
      <line x1="0" y1="-12" x2="0" y2="-8"/>
      <line x1="-8" y1="-20" x2="-12" y2="-20"/>
      <line x1="5.66" y1="-25.66" x2="8.49" y2="-28.49"/>
      <line x1="5.66" y1="-14.34" x2="8.49" y2="-11.51"/>
      <line x1="-5.66" y1="-25.66" x2="-8.49" y2="-28.49"/>
      <line x1="-5.66" y1="-14.34" x2="-8.49" y2="-11.51"/>
    </g>
    
    <!-- Gorro frigio -->
    <path d="M-5,-25 Q0,-30 5,-25 L3,-20 Q0,-22 -3,-20 Z" fill="#FF0000"/>
    
    <!-- Rama de laurel izquierda -->
    <path d="M-15,-10 Q-12,-15 -8,-12 Q-5,-10 -8,-8 Q-12,-5 -15,-10" fill="#228B22"/>
    
    <!-- Rama de laurel derecha -->
    <path d="M15,-10 Q12,-15 8,-12 Q5,-10 8,-8 Q12,-5 15,-10" fill="#228B22"/>
    
    <!-- Estrellas (14 estrellas) -->
    <g fill="#ffffff">
      <polygon points="0,0 1,2 0,4 -1,2" transform="translate(-12, -8)"/>
      <polygon points="0,0 1,2 0,4 -1,2" transform="translate(-8, -12)"/>
      <polygon points="0,0 1,2 0,4 -1,2" transform="translate(-4, -14)"/>
      <polygon points="0,0 1,2 0,4 -1,2" transform="translate(0, -15)"/>
      <polygon points="0,0 1,2 0,4 -1,2" transform="translate(4, -14)"/>
      <polygon points="0,0 1,2 0,4 -1,2" transform="translate(8, -12)"/>
      <polygon points="0,0 1,2 0,4 -1,2" transform="translate(12, -8)"/>
      <polygon points="0,0 1,2 0,4 -1,2" transform="translate(-10, -5)"/>
      <polygon points="0,0 1,2 0,4 -1,2" transform="translate(-6, -7)"/>
      <polygon points="0,0 1,2 0,4 -1,2" transform="translate(-2, -8)"/>
      <polygon points="0,0 1,2 0,4 -1,2" transform="translate(2, -8)"/>
      <polygon points="0,0 1,2 0,4 -1,2" transform="translate(6, -7)"/>
      <polygon points="0,0 1,2 0,4 -1,2" transform="translate(10, -5)"/>
      <polygon points="0,0 1,2 0,4 -1,2" transform="translate(0, -10)"/>
    </g>
  </g>
</svg> 