<svg xmlns="http://www.w3.org/2000/svg" width="150" height="150.001" viewBox="0 0 150 150.001">
  <path id="_-e-Infographic-3" data-name="-e-Infographic-3" d="M474.526,3513a73.572,73.572,0,0,1-14.713-145.648,8.473,8.473,0,0,1,3.385,16.6,56.643,56.643,0,1,0,66.862,66.865,8.471,8.471,0,1,1,16.6,3.387A73.811,73.811,0,0,1,474.526,3513Zm11.719-143.234V3421.2a6.508,6.508,0,0,0,6.51,6.506h51.693a6.554,6.554,0,0,0,6.51-7.291,65.1,65.1,0,0,0-57.356-57.357,6.511,6.511,0,0,0-7.357,6.445v.262Z" transform="translate(-400.998 -3363.001)" fill="#181c31" fill-rule="evenodd"/>
</svg>
