<svg xmlns="http://www.w3.org/2000/svg" width="125" height="150" viewBox="0 0 125 150">
  <path id="Path_40658" data-name="Path 40658" d="M50.875,10.895h31.25a3.948,3.948,0,0,0,0-7.895H50.875a3.948,3.948,0,0,0,0,7.895Zm62.449,37.211,10.625-10.737a3.976,3.976,0,0,0,0-5.484,3.877,3.877,0,0,0-5.523-.1L107.8,42.525a61.762,61.762,0,0,0-82.6,0L14.574,31.789a3.876,3.876,0,0,0-5.427,0,3.977,3.977,0,0,0-.1,5.581L19.676,48.107A63.223,63.223,0,0,0,4,89.842C4,124.723,31.982,153,66.5,153c34.5-.04,62.46-28.293,62.5-63.158A63.224,63.224,0,0,0,113.324,48.106Zm-46.824,97c-30.2,0-54.687-24.742-54.687-55.263A55.376,55.376,0,0,1,27.726,50.882c.039-.037.093-.05.131-.088s.05-.092.086-.132a54.223,54.223,0,0,1,77.175.093l.063.064a55.447,55.447,0,0,1,16.007,39.024C121.188,120.363,96.7,145.105,66.5,145.105Zm3.906-66.381V62.211a3.906,3.906,0,1,0-7.813,0V78.725a11.719,11.719,0,1,0,7.813,0Z" transform="translate(-4 -3)" fill="#181c31"/>
</svg>
