<svg xmlns="http://www.w3.org/2000/svg" width="150" height="150" viewBox="0 0 150 150">
  <path id="Path_40659" data-name="Path 40659" d="M190.919,81.457c12.1-12.065,21.152-21.081,21.152-21.081a4.246,4.246,0,0,0,.576-.933l10.6-10.589a14.161,14.161,0,0,0,0-20.218l-18.926-18.8a14.21,14.21,0,0,0-20.291,0L172.518,21.659a3.417,3.417,0,0,0-.569.758s-8.609,8.551-20.24,20.1L117.534,8.583a3.672,3.672,0,0,0-5.073,0L78.513,42.292a3.613,3.613,0,0,0,0,5.038l34.176,33.939c-12.635,12.545-22.321,22.162-22.532,22.375a4.574,4.574,0,0,0-1.287,2.164c-.085.631-5.082,38.689-5.082,38.689a6.489,6.489,0,0,0,1.053,4.31c.778.774,1.635,2.177,2.612,2.177h.586s37.22-5.281,38.356-5.435,2.02-1.875,2.982-2.828c.325-.322,9.985-9.916,22.592-22.484L186.55,154.6a3.73,3.73,0,0,0,2.537.984,3.232,3.232,0,0,0,2.537-.966L225.572,120.9a3.605,3.605,0,0,0,0-5.034Zm-1.232-66.383a6.352,6.352,0,0,1,4.878-2.132,7.1,7.1,0,0,1,5.073,2.132l18.924,18.793a6.984,6.984,0,0,1,0,9.88l-9.17,9.106-14.14-14.042a2.643,2.643,0,0,0-.789-.784L180.518,24.181ZM86.124,44.815,115,16.14l4.1,4.071-7.414,7.363a3.611,3.611,0,0,0,0,5.037,3.724,3.724,0,0,0,2.537.97,3.238,3.238,0,0,0,2.537-.97l7.414-7.362,3.9,3.875-7.026,7.751a3.609,3.609,0,0,0,0,5.037,3.725,3.725,0,0,0,2.537.967,3.241,3.241,0,0,0,2.537-.967l7.415-7.363,13.1,13.011L117.764,76.232Zm89.029-15.5,11.9,11.818-77.36,76.826-11.9-11.824Zm-83.409,111.7,3.71-27.129,23.607,23.446Zm34.927-6.2-11.9-11.82,77.357-76.817,11.9,11.818Zm62.418,12.255-32.054-31.832c9.3-9.27,19.635-19.573,28.823-28.73l13.575,13.483-7.61,7.557a3.605,3.605,0,0,0,0,5.037,3.732,3.732,0,0,0,2.537.968,3.25,3.25,0,0,0,2.537-.968l7.61-7.557,3.9,3.873-7.609,7.557a3.609,3.609,0,0,0,0,5.037,3.721,3.721,0,0,0,2.537.968,3.25,3.25,0,0,0,2.537-.968l7.609-7.557,4.1,4.071Z" transform="translate(-77.49 -5.58)" fill="#181c31"/>
</svg>
