<svg xmlns="http://www.w3.org/2000/svg" width="150" height="150" viewBox="0 0 150 150">
  <path id="Path_40656" data-name="Path 40656" d="M275.254,139.889a13.513,13.513,0,0,0,3.206-1.464,13.329,13.329,0,0,0-14.367-22.456,13.4,13.4,0,0,0-1.875,1.441L247.564,92.135a10.14,10.14,0,0,0-18.836,3.818c-.024.03-.056.053-.078.085l-31.864,43.974-33.279,20.3c-5.866,3.579-7.341,11.946-3.284,18.652l13.219,21.862a15.139,15.139,0,0,0,9.208,6.96,12.521,12.521,0,0,0,2.964.36,11.255,11.255,0,0,0,5.891-1.628l2.012-1.226,16.514,27.377a9.081,9.081,0,0,0,5.674,4.156,9.3,9.3,0,0,0,2.189.264,9.1,9.1,0,0,0,4.768-1.35l5.186-3.174a9.235,9.235,0,0,0,3.093-12.614l-16.531-27.406,11.094-6.767a3.249,3.249,0,0,0,.839-.749l48.607-6.816a10.234,10.234,0,0,0,6.2,2.1,10.105,10.105,0,0,0,8.766-15.145Zm-7.613-18.377a6.748,6.748,0,1,1,4.152,12.4l-6.1-10.526a6.713,6.713,0,0,1,1.951-1.877ZM224.388,226.962l-5.187,3.174a2.555,2.555,0,0,1-3.514-.853l-16.322-27.06,9.626-5.891,16.286,27a2.685,2.685,0,0,1-.888,3.628Zm.584-48.379-21.83-36.107L231.017,104l39.544,68.191Zm-36.919,22.329a5.017,5.017,0,0,1-3.841.486,8.51,8.51,0,0,1-5.119-3.964l-13.219-21.862c-2.155-3.566-1.663-7.987,1.078-9.657l31.165-19.008,21.143,34.971Zm96.491-29.781a3.5,3.5,0,0,1-1.643,2.144,3.552,3.552,0,0,1-4.837-1.291L235.714,98.949a3.538,3.538,0,0,1,6.136-3.522L284.2,168.463a3.482,3.482,0,0,1,.345,2.668Zm1.791-57.725,8.319-4.781a3.29,3.29,0,1,1,3.3,5.693l-8.319,4.781a3.29,3.29,0,1,1-3.3-5.693ZM279.107,102.9l5.12-8.091a3.3,3.3,0,0,1,5.584,3.5l-5.12,8.091a3.3,3.3,0,0,1-5.584-3.5Zm28.822,23.9a3.289,3.289,0,0,1-3.171,3.409l-9.6.369c-.043,0-.087,0-.13,0a3.285,3.285,0,0,1-.125-6.568l9.6-.369A3.3,3.3,0,0,1,307.929,126.8Z" transform="translate(-157.932 -87.089)" fill="#181c31"/>
</svg>
