<svg xmlns="http://www.w3.org/2000/svg" width="150" height="150" viewBox="0 0 150 150">
  <path id="Path_40678" data-name="Path 40678" d="M275.472,188.158l-40.948-40.983a56.783,56.783,0,0,0,8.915-30.533,50.78,50.78,0,0,0-.272-5.524,3.568,3.568,0,1,0-7.095.761,44.625,44.625,0,0,1,.23,4.762,49.889,49.889,0,0,1-89.822,30.019L173.852,119.3l18.888,18.908a3.566,3.566,0,0,0,5.045,0l44.972-45.011,2.823,2.837a5.351,5.351,0,0,0,9.113-3.158L257.43,69.29a5.354,5.354,0,0,0-5.933-5.941l-23.564,2.741a5.36,5.36,0,0,0-3.157,9.121l2.836,2.825L195.265,110.42,176.375,91.506a3.667,3.667,0,0,0-5.045,0l-34.093,34.156a49.81,49.81,0,0,1,49.1-59.028A49.223,49.223,0,0,1,208.815,72a3.572,3.572,0,0,0,3.235-6.369,56.252,56.252,0,0,0-25.695-6.138,57.148,57.148,0,1,0,30.489,105.374l40.961,41a12.506,12.506,0,0,0,17.667-17.706ZM173.851,99.082l18.888,18.9a3.566,3.566,0,0,0,5.045,0l37.4-37.432h0a3.572,3.572,0,0,0,0-5.057l-2.748-2.74L250.085,70.7l-2.05,17.669-2.74-2.755a3.562,3.562,0,0,0-5.05-.005l-44.982,45.014-18.891-18.907a3.568,3.568,0,0,0-5.045,0l-28.846,28.837a49.762,49.762,0,0,1-3.082-6.963Zm96.585,101.706a5.411,5.411,0,0,1-7.594.013l-40.122-40.157a57.96,57.96,0,0,0,7.587-7.593l40.108,40.14a5.419,5.419,0,0,1,.02,7.594Z" transform="translate(-129.11 -59.49)" fill="#181c31"/>
</svg>
