<svg xmlns="http://www.w3.org/2000/svg" width="175" height="150" viewBox="0 0 175 150">
  <path id="Path_40657" data-name="Path 40657" d="M3.333,57.206c.042.176.167.265.25.441a5.92,5.92,0,0,0,.5.882l83.373,97.059c.042.088.167.088.208.177a5.207,5.207,0,0,0,.959.75c.125.088.25.132.375.221a5.962,5.962,0,0,0,1.542.265,3.431,3.431,0,0,0,1.5-.353,1.665,1.665,0,0,0,.375-.221,3.2,3.2,0,0,0,.959-.75c.083-.088.167-.088.208-.176l83.373-97.059a3.656,3.656,0,0,0,.5-.882,1.487,1.487,0,0,0,.25-.441A4.277,4.277,0,0,0,178,55.529v-.044a1.352,1.352,0,0,0-.083-.4,5.052,5.052,0,0,0-.208-1.147,4.483,4.483,0,0,0-.333-.618c-.125-.176-.167-.4-.292-.618L143.734,8.588c-.042-.044-.125-.088-.167-.132a3.886,3.886,0,0,0-.917-.75,3.472,3.472,0,0,0-.5-.353c-.042-.044-.083-.088-.125-.088a2.931,2.931,0,0,0-1.209-.221c-.042.044-.125-.044-.25-.044H40.518c-.125,0-.25.088-.375.088a3.641,3.641,0,0,0-1.167.221c-.042,0-.083.088-.125.088a2.091,2.091,0,0,0-.5.353,3.887,3.887,0,0,0-.917.75c-.042.044-.125.088-.167.132L3.917,52.75a2.76,2.76,0,0,0-.292.618,4.483,4.483,0,0,0-.333.618,3.7,3.7,0,0,0-.208,1.147,1.352,1.352,0,0,0-.083.4v.044A4.383,4.383,0,0,0,3.333,57.206ZM16.59,59.941H54.274l25.137,73.1Zm73.952,79.721L63.154,59.941H117.93Zm11.13-6.618,25.137-73.1h37.685Zm40.1-112.985,23.47,31.059H130.06ZM134.4,15.824,122.682,46.882,99.212,15.824ZM115.22,51.118H65.863L90.542,18.471ZM81.871,15.824,58.4,46.882,46.687,15.824ZM39.309,20.059,51.023,51.118H15.839Z" transform="translate(-3 -7)" fill="#181c31"/>
</svg>
