<svg xmlns="http://www.w3.org/2000/svg" width="150" height="150" viewBox="0 0 150 150">
  <path id="Union_84" data-name="Union 84" d="M17491.938,8506.02h0l-2.3-2.758a14.328,14.328,0,0,0-12.352-5.129h0l-3.594.316a22.249,22.249,0,0,1-24.156-24.137h0l.352-3.6a14.386,14.386,0,0,0-5.125-12.359l-2.758-2.289a22.186,22.186,0,0,1,0-34.129l2.758-2.289a14.39,14.39,0,0,0,5.125-12.359h0l-.352-3.6a22.249,22.249,0,0,1,24.156-24.137h-.008l3.6.309a14.3,14.3,0,0,0,12.352-5.125h0l2.3-2.754a22.23,22.23,0,0,1,34.125,0h0l2.3,2.754a14.316,14.316,0,0,0,12.367,5.125h-.016l3.6-.309a22.217,22.217,0,0,1,24.133,24.137h0l-.328,3.6a14.369,14.369,0,0,0,5.125,12.359l2.75,2.289a22.186,22.186,0,0,1,0,34.129l-2.75,2.289a14.365,14.365,0,0,0-5.125,12.359h0l.328,3.6a22.217,22.217,0,0,1-24.133,24.137h0l-3.586-.316a14.371,14.371,0,0,0-12.367,5.129v0l-2.3,2.754a22.223,22.223,0,0,1-34.125,0Zm-13.391-15.723a22.225,22.225,0,0,1,17.063,8h0l2.3,2.75a14.388,14.388,0,0,0,22.117,0l2.3-2.75a22.155,22.155,0,0,1,19.125-7.922l3.6.309a14.374,14.374,0,0,0,15.6-15.605l-.344-3.6a22.269,22.269,0,0,1,7.922-19.121l2.75-2.289.039-.121a14.373,14.373,0,0,0,0-22.109h0l-2.75-2.293a22.256,22.256,0,0,1-7.914-19.129l.344-3.594a14.39,14.39,0,0,0-15.609-15.609l-3.6.3a22.23,22.23,0,0,1-19.141-7.883h0l-2.281-2.75a14.4,14.4,0,0,0-22.125,0h0l-2.289,2.75a22.253,22.253,0,0,1-19.133,7.922l-3.586-.3a14.4,14.4,0,0,0-15.625,15.609l.352,3.59a22.218,22.218,0,0,1-7.922,19.121h-.016l-2.742,2.3a14.382,14.382,0,0,0,0,22.105h0l2.758,2.3a22.227,22.227,0,0,1,7.922,19.121h0l-.352,3.6a14.4,14.4,0,0,0,15.625,15.605v0l3.586-.309Zm-2.539-18.293a46.67,46.67,0,0,1,33.008-79.668h0a46.67,46.67,0,1,1-33.008,79.668Zm5.555-60.5a38.83,38.83,0,0,0,27.453,66.3v.035a38.842,38.842,0,0,0,.008-77.684H17509A38.818,38.818,0,0,0,17481.563,8411.5Zm16.8,43.492-10.937-10.937a3.922,3.922,0,0,1,5.547-5.547h0l8.156,8.152,23.914-23.758.109-.234a3.924,3.924,0,1,1,5.547,5.551h0l-26.789,26.773a3.824,3.824,0,0,1-5.547,0Z" transform="translate(-17434 -8364.004)" fill="#181c31"/>
</svg>
