<svg xmlns="http://www.w3.org/2000/svg" width="131" height="150" viewBox="0 0 131 150">
  <path id="Union_83" data-name="Union 83" d="M17489.8,8511.418a19.308,19.308,0,0,1-9.686-16.73v-18.359a50.65,50.65,0,0,1-29.91-59.523l4.7,1.211a45.9,45.9,0,0,0,28.484,54.41,2.391,2.391,0,0,1,1.576,2.273v5.5h29.084v-5.48a2.422,2.422,0,0,1,1.584-2.27,45.9,45.9,0,0,0-25.336-87.91l-.982-4.828a52.672,52.672,0,0,1,12.953-.937,51.194,51.194,0,0,1,48.135,51.676,50.4,50.4,0,0,1-31.518,45.883v18.359a19.331,19.331,0,0,1-19.371,19.309A19.56,19.56,0,0,1,17489.8,8511.418Zm1.318-4.9a14.543,14.543,0,0,0,22.09-7h-27.4A14.491,14.491,0,0,0,17491.117,8506.516Zm-6.152-11.828h29.084v-9.656h-29.084Zm52.182-24.359,3.445-3.48,6.879,6.957-3.455,3.492Zm-85.6,3.488,6.871-6.969,3.445,3.48-6.877,6.969Zm63.73-27.355v-22.152h4.85v22.152Zm-24.266-.023v-19.691h4.857v19.691Zm12.125-.047v-14.773h4.873v14.773Zm-24.258-.027v-12.309h4.873v12.309Zm76.393-14.566v-4.926h9.73v4.926Zm-121.27,0v-4.926h9.732v4.926Zm43.457-6.863,14.613-9.836a2.362,2.362,0,0,1,2.572,0l10.986,6.59,13.342-8.988,2.6,4.16-14.613,9.84a2.349,2.349,0,0,1-2.564,0l-10.934-6.652-13.318,8.984Zm-14.559-9.227a4.1,4.1,0,0,1-2.869-1.148,4.3,4.3,0,0,1-1.271-2.844v-.535a17.469,17.469,0,0,1-2.994-1.723l-.646.359a4.187,4.187,0,0,1-5.615-1.5l-2.721-4.719a4,4,0,0,1-.477-3.133,4.232,4.232,0,0,1,2-2.664l.5-.293v-3.2l-.5-.293a4.208,4.208,0,0,1-2-2.469,4.006,4.006,0,0,1,.477-3.133l2.721-4.6a4.255,4.255,0,0,1,2.52-1.883,4.15,4.15,0,0,1,3.1.383l.646.359a16.2,16.2,0,0,1,2.994-1.707v-.551a4.29,4.29,0,0,1,1.232-2.918,4.124,4.124,0,0,1,2.908-1.2h5.506a4.144,4.144,0,0,1,4.133,4.113v.551a16.265,16.265,0,0,1,3.01,1.707l.631-.336a4.124,4.124,0,0,1,3.111-.414,4.079,4.079,0,0,1,2.5,1.891l2.752,4.75a3.994,3.994,0,0,1,.453,3.148,4.217,4.217,0,0,1-1.973,2.473l-.516.289v3.2l.516.293a4.193,4.193,0,0,1,1.973,2.461,4.013,4.013,0,0,1-.453,3.16l-2.752,4.594a4.116,4.116,0,0,1-2.5,1.887,4.181,4.181,0,0,1-3.111-.383l-.631-.371a15.913,15.913,0,0,1-3.01,1.727v.547a4.144,4.144,0,0,1-4.133,4.109Zm-6.8-11.395a4.239,4.239,0,0,1,2.254.828,11.921,11.921,0,0,0,2.635,1.508,4.133,4.133,0,0,1,2.645,3.84v.293h4.264v-.293a4.164,4.164,0,0,1,2.645-3.84,12.262,12.262,0,0,0,2.658-1.508,4.236,4.236,0,0,1,2.238-.828,4.291,4.291,0,0,1,2.355.512l.436.242,1.91-3.246-.24-.145a4.088,4.088,0,0,1-1.67-1.734,4.008,4.008,0,0,1-.4-2.379v-1.551a10.294,10.294,0,0,0-.219-1.551,4.2,4.2,0,0,1,2.082-4.121l.25-.141-1.92-3.246-.42.238a4.27,4.27,0,0,1-2.34.52,4.332,4.332,0,0,1-2.223-.832,12.156,12.156,0,0,0-2.689-1.508,4.111,4.111,0,0,1-1.91-1.5,4.157,4.157,0,0,1-.725-2.336h-.031v-.3h-4.031v.3a4.081,4.081,0,0,1-.727,2.336,4.152,4.152,0,0,1-1.926,1.5,11.842,11.842,0,0,0-2.643,1.508,4.3,4.3,0,0,1-2.3.863,4.189,4.189,0,0,1-2.379-.551l-.443-.238-1.918,3.246.248.141a4.226,4.226,0,0,1,1.67,1.742,4.106,4.106,0,0,1,.389,2.379v1.551h-.016a10.38,10.38,0,0,0,.156,1.551,4.34,4.34,0,0,1-.42,2.379,4.17,4.17,0,0,1-1.686,1.734l-.258.145,1.943,3.246.436-.242a4.25,4.25,0,0,1,2.035-.523C17455.9,8404.3,17456,8404.3,17456.1,8404.313Zm3.439-2.676a8.634,8.634,0,0,1,0-12.176,8.451,8.451,0,0,1,12.063,0,8.7,8.7,0,0,1,0,12.176,8.46,8.46,0,0,1-12.062,0Zm2.377-6.082a3.644,3.644,0,0,0,6.238,2.609,3.8,3.8,0,0,0,.779-4.027,3.642,3.642,0,0,0-7.018,1.418Zm75.232-6.867,6.869-6.973,3.455,3.492-6.887,6.953Zm-40.08-14.84V8364h4.865v9.852Z" transform="translate(-17433.998 -8363.996)" fill="#181c31"/>
</svg>
